HIERARCHY
ROOT Hips
{
	OFFSET -14.64140 90.27770 -84.91600
	CHANNELS 6 Xposition Yposition Zposition Zrotation Xrotation Yrotation
	JOINT Spine
	{
		OFFSET 0.00000 13.20850 -1.60436
		CHANNELS 3 Zrotation Xrotation Yrotation
		JOINT Spine1
		{
			OFFSET 0.00000 8.61716 0.00000
			CHANNELS 3 Zrotation Xrotation Yrotation
			JOINT Spine2
			{
				OFFSET 0.00000 8.61717 0.00000
				CHANNELS 3 Zrotation Xrotation Yrotation
				JOINT Spine3
				{
					OFFSET 0.00000 8.61717 0.00000
					CHANNELS 3 Zrotation Xrotation Yrotation
					JOINT Neck
					{
						OFFSET 0.00000 11.07920 1.10792
						CHANNELS 3 Zrotation Xrotation Yrotation
						JOINT Neck1
						{
							OFFSET 0.00000 7.08032 0.00000
							CHANNELS 3 Zrotation Xrotation Yrotation
							JOINT Head
							{
								OFFSET 0.00000 7.08031 0.00000
								CHANNELS 3 Zrotation Xrotation Yrotation
								End site
								{
									OFFSET 0.00000 0.00000 0.00000
								}
							}
						}
					}
					JOINT RightShoulder
					{
						OFFSET -0.01000 7.91373 5.19711
						CHANNELS 3 Zrotation Xrotation Yrotation
						JOINT RightArm
						{
							OFFSET -18.41580 0.00000 0.00000
							CHANNELS 3 Zrotation Xrotation Yrotation
							JOINT RightForeArm
							{
								OFFSET -29.11090 0.00000 0.00000
								CHANNELS 3 Zrotation Xrotation Yrotation
								JOINT RightHand
								{
									OFFSET -24.65040 0.00000 0.00000
									CHANNELS 3 Zrotation Xrotation Yrotation
									JOINT RightHandThumb1
									{
										OFFSET -5.35114 -0.85590 3.97906
										CHANNELS 3 Zrotation Xrotation Yrotation
										JOINT RightHandThumb2
										{
											OFFSET -4.52789 0.00000 0.00000
											CHANNELS 3 Zrotation Xrotation Yrotation
											JOINT RightHandThumb3
											{
												OFFSET -2.46976 0.00000 0.00000
												CHANNELS 3 Zrotation Xrotation Yrotation
												End site
												{
													OFFSET 0.00000 0.00000 0.00000
												}
											}
										}
									}
									JOINT RightHandIndex1
									{
										OFFSET -14.26970 0.00000 2.88139
										CHANNELS 3 Zrotation Xrotation Yrotation
										JOINT RightHandIndex2
										{
											OFFSET -5.48836 0.00000 0.00000
											CHANNELS 3 Zrotation Xrotation Yrotation
											JOINT RightHandIndex3
											{
												OFFSET -3.01859 0.00000 0.00000
												CHANNELS 3 Zrotation Xrotation Yrotation
												End site
												{
													OFFSET 0.00000 0.00000 0.00000
												}
											}
										}
									}
									JOINT RightHandMiddle1
									{
										OFFSET -14.26970 0.00000 -0.09147
										CHANNELS 3 Zrotation Xrotation Yrotation
										JOINT RightHandMiddle2
										{
											OFFSET -6.17441 0.00000 0.00000
											CHANNELS 3 Zrotation Xrotation Yrotation
											JOINT RightHandMiddle3
											{
												OFFSET -3.56743 0.00000 0.00000
												CHANNELS 3 Zrotation Xrotation Yrotation
												End site
												{
													OFFSET 0.00000 0.00000 0.00000
												}
											}
										}
									}
									JOINT RightHandRing1
									{
										OFFSET -12.69180 0.00000 -3.06433
										CHANNELS 3 Zrotation Xrotation Yrotation
										JOINT RightHandRing2
										{
											OFFSET -5.62556 0.00000 0.00000
											CHANNELS 3 Zrotation Xrotation Yrotation
											JOINT RightHandRing3
											{
												OFFSET -3.56744 0.00000 0.00000
												CHANNELS 3 Zrotation Xrotation Yrotation
												End site
												{
													OFFSET 0.00000 0.00000 0.00000
												}
											}
										}
									}
									JOINT RightHandPinky1
									{
										OFFSET -11.11390 0.00000 -6.03719
										CHANNELS 3 Zrotation Xrotation Yrotation
										JOINT RightHandPinky2
										{
											OFFSET -4.52789 0.00000 0.00000
											CHANNELS 3 Zrotation Xrotation Yrotation
											JOINT RightHandPinky3
											{
												OFFSET -2.46976 0.00000 0.00000
												CHANNELS 3 Zrotation Xrotation Yrotation
												End site
												{
													OFFSET 0.00000 0.00000 0.00000
												}
											}
										}
									}
								}
							}
						}
					}
					JOINT LeftShoulder
					{
						OFFSET 0.01000 7.91373 5.19711
						CHANNELS 3 Zrotation Xrotation Yrotation
						JOINT LeftArm
						{
							OFFSET 18.41580 0.00000 0.00000
							CHANNELS 3 Zrotation Xrotation Yrotation
							JOINT LeftForeArm
							{
								OFFSET 29.11090 0.00000 0.00000
								CHANNELS 3 Zrotation Xrotation Yrotation
								JOINT LeftHand
								{
									OFFSET 24.65040 0.00000 0.00000
									CHANNELS 3 Zrotation Xrotation Yrotation
									JOINT LeftHandThumb1
									{
										OFFSET 5.35114 -0.85590 3.97906
										CHANNELS 3 Zrotation Xrotation Yrotation
										JOINT LeftHandThumb2
										{
											OFFSET 4.52789 0.00000 0.00000
											CHANNELS 3 Zrotation Xrotation Yrotation
											JOINT LeftHandThumb3
											{
												OFFSET 2.46977 0.00000 0.00000
												CHANNELS 3 Zrotation Xrotation Yrotation
												End site
												{
													OFFSET 0.00000 0.00000 0.00000
												}
											}
										}
									}
									JOINT LeftHandIndex1
									{
										OFFSET 14.26970 0.00000 2.88139
										CHANNELS 3 Zrotation Xrotation Yrotation
										JOINT LeftHandIndex2
										{
											OFFSET 5.48836 0.00000 0.00000
											CHANNELS 3 Zrotation Xrotation Yrotation
											JOINT LeftHandIndex3
											{
												OFFSET 3.01859 0.00000 0.00000
												CHANNELS 3 Zrotation Xrotation Yrotation
												End site
												{
													OFFSET 0.00000 0.00000 0.00000
												}
											}
										}
									}
									JOINT LeftHandMiddle1
									{
										OFFSET 14.26970 0.00000 -0.09147
										CHANNELS 3 Zrotation Xrotation Yrotation
										JOINT LeftHandMiddle2
										{
											OFFSET 6.17440 0.00000 0.00000
											CHANNELS 3 Zrotation Xrotation Yrotation
											JOINT LeftHandMiddle3
											{
												OFFSET 3.56744 0.00000 0.00000
												CHANNELS 3 Zrotation Xrotation Yrotation
												End site
												{
													OFFSET 0.00000 0.00000 0.00000
												}
											}
										}
									}
									JOINT LeftHandRing1
									{
										OFFSET 12.69180 0.00000 -3.06433
										CHANNELS 3 Zrotation Xrotation Yrotation
										JOINT LeftHandRing2
										{
											OFFSET 5.62556 0.00000 0.00000
											CHANNELS 3 Zrotation Xrotation Yrotation
											JOINT LeftHandRing3
											{
												OFFSET 3.56744 0.00000 0.00000
												CHANNELS 3 Zrotation Xrotation Yrotation
												End site
												{
													OFFSET 0.00000 0.00000 0.00000
												}
											}
										}
									}
									JOINT LeftHandPinky1
									{
										OFFSET 11.11390 0.00000 -6.03719
										CHANNELS 3 Zrotation Xrotation Yrotation
										JOINT LeftHandPinky2
										{
											OFFSET 4.52789 0.00000 0.00000
											CHANNELS 3 Zrotation Xrotation Yrotation
											JOINT LeftHandPinky3
											{
												OFFSET 2.46976 0.00000 0.00000
												CHANNELS 3 Zrotation Xrotation Yrotation
												End site
												{
													OFFSET 0.00000 0.00000 0.00000
												}
											}
										}
									}
								}
							}
						}
					}
					JOINT pCube4
					{
						OFFSET 0.00000 10.91090 1.10792
						CHANNELS 3 Zrotation Xrotation Yrotation
						End site
						{
							OFFSET 0.00000 0.00000 0.00000
						}
					}
				}
			}
		}
	}
	JOINT RightUpLeg
	{
		OFFSET -9.98441 0.00000 0.00000
		CHANNELS 3 Zrotation Xrotation Yrotation
		JOINT RightLeg
		{
			OFFSET 0.00000 -42.11790 0.00000
			CHANNELS 3 Zrotation Xrotation Yrotation
			JOINT RightFoot
			{
				OFFSET 0.00000 -45.00020 -0.00001
				CHANNELS 3 Zrotation Xrotation Yrotation
				JOINT RightForeFoot
				{
					OFFSET 0.00000 -3.74820 0.00000
					CHANNELS 3 Zrotation Xrotation Yrotation
					JOINT RightToeBase
					{
						OFFSET 0.00000 0.06325 14.43120
						CHANNELS 3 Zrotation Xrotation Yrotation
						End site
						{
							OFFSET 0.00000 0.00000 0.00000
						}
					}
				}
			}
		}
	}
	JOINT LeftUpLeg
	{
		OFFSET 9.98441 0.00000 0.00000
		CHANNELS 3 Zrotation Xrotation Yrotation
		JOINT LeftLeg
		{
			OFFSET 0.00000 -42.11800 0.00000
			CHANNELS 3 Zrotation Xrotation Yrotation
			JOINT LeftFoot
			{
				OFFSET 0.00000 -45.00070 0.00000
				CHANNELS 3 Zrotation Xrotation Yrotation
				JOINT LeftForeFoot
				{
					OFFSET 0.00000 -3.74824 0.00000
					CHANNELS 3 Zrotation Xrotation Yrotation
					JOINT LeftToeBase
					{
						OFFSET 0.00000 0.06325 14.43110
						CHANNELS 3 Zrotation Xrotation Yrotation
						End site
						{
							OFFSET 0.00000 0.00000 0.00000
						}
					}
				}
			}
		}
	}
}
MOTION
Frames: 4
Frame Time: 0.050000
0.04115400334386825 0.044055323384621516 0.015427230952291583 -0.013141099746673213 -0.04844495984569869 0.007787790739703914 5.099928038800563 3.210670987568212 -2.16128125953376 -0.9379125099290491 3.3787913092958064 0.4606299112541743 -0.7116578164223416 -0.8900160003997348 0.8255984478012601 -0.4759706527687343 -0.3323063124064671 -0.27714562167939816 0.22389852187863737 11.373908949712165 -1.6341226380066305 0.34184056757609843 -0.7506205087441706 -3.913933373142405 1.0504763456670492 -17.37829525313818 -0.40054699811589095 -11.816018623980536 4.090593493485453 -16.504346399799026 80.73866616887328 -1.6833643070815292 13.968721771967457 23.367241370209943 1.4369419477825638 83.32843847614552 9.65878627217351 -0.45355435980383535 -5.3261349436443215 4.545518320137702 -0.14840767326504162 -1.5508340119875443 -0.04659975934510119 0.026564438075429193 -56.25993916645546 -0.02911277544903691 0.02488690711790238 -56.19915251445339 -38.80168552882073 -0.026293531185804946 0.007553857763101581 0.016733775445181672 0.03767375881135942 0.000628270893169377 -0.043260296804604616 -0.004881024978175586 -0.04269487449069337 -36.6735965747112 0.014519394866237288 -0.011281261295713935 -0.005368035643640259 -0.029477616284082117 0.03937267388022206 -0.025057317579724826 -0.04622478580276852 0.0023071126794573715 -19.75335196004077 0.040864124638067226 0.04549205210360744 0.006784288858043004 0.021263778315981065 -0.010761322238366905 -0.045277707345166285 -0.018868296284352847 -0.00032485698099703376 24.0122421362126 0.02249124840645153 -0.01048509200656061 28.82656864399782 -0.005463372300768207 -0.007006719172383668 28.882556112042494 -0.019982137839308235 0.025836207773871214 10.801513897799884 2.565613177587707 13.493955354792948 -78.94487931772235 17.746331931785086 -13.274505796169406 -69.43798448388048 11.83396097206616 -95.3849008433393 -8.077348688738455 -9.339144610652918 5.991670596009662 -0.45376534833370863 0.09940052405175284 -8.12835584672115 -0.018331519706310702 0.005033413447182189 44.58689005388715 -0.026441478569277723 0.022110340578940738 44.52645558319701 12.495243591703039 0.027489687346161872 0.025671145057677276 0.04262700101741417 0.02583242997198868 -0.018360406222352764 -0.01924523457234054 -0.006450950985571731 -0.0166643085657922 11.131234413608391 0.03440202462541853 -0.0390930327208847 0.04115606134796792 -0.03293649786358602 -0.01883298720843675 -0.016942874132008272 -0.025348584786224378 0.031001455491089944 4.762731469895648 -0.03872558221252723 -0.020960744641743686 -0.01675182258358189 0.041528925845552456 0.037632119373817635 0.0051426818837133955 -0.03540348970444411 0.021598424400101773 -5.582337354603942 -0.027758122378196082 0.028847257384507854 -6.7491216782934425 0.02591877667586253 0.03160670997683418 -6.691328531273503 0.007872599021656074 -0.01700851391791617 -0.0165156271480054 0.007648149014914574 0.04791025559247372 8.075619787249021 3.53064550788126 -19.25077413604945 -0.02130655941050039 10.42939836730528 0.047735791737253994 -5.595201230945755 -15.694699094560228 3.1898182199331404 0.002605589453848628 -0.016159598790840998 0.03245953530490399 -0.011097229344709195 4.659056037770763 -0.048419600232909685 12.485167516900587 -8.219207205517812 6.83346998937339 0.011741004781986196 46.39726602970086 -0.015211365270640351 -4.331831562074176 -14.711314298824519 -3.789895503666302 0.012586410462817605 -0.049560914039934977 0.04016648322056631 -0.021039140838282518 -10.75146406167919 0.02672165820184019 
-0.040111152092751075 -0.02742104395620632 0.0013320972501542974 -0.022972919977730533 -0.024395964458256203 0.013832049671056168 5.1364586750553896 3.210155884103132 -2.167107564393154 -0.9313414511613225 3.4004056673249825 0.4271666157386632 -0.7685032292662345 -0.929508748077368 0.7744026203977541 -0.41198139891410696 -0.2823370314725167 -0.3095330938200877 0.23137030357545935 11.20342490094321 -1.695077885425766 0.3438088350891103 -0.7918350446535242 -4.131642610215926 1.1083717065400762 -17.479803454227525 -0.43510863109804365 -11.662949948987626 3.9916397845208618 -16.596988319989524 81.08962971930295 -2.2205807415151404 13.067049771457395 23.59595700205423 1.575642266366228 82.31950025888976 9.818287051479858 -0.4833390386689199 -5.585680443922339 4.526728186164649 -0.16971105231597747 -1.6017659900411838 -0.03295011733161447 -0.008330563567737318 -56.23804214860554 -0.008728174048760253 0.029408892503877012 -56.27841278724576 -38.794858080270174 0.02614325399625015 -0.01748529777441337 -0.03885332556443803 0.035666984171899146 0.033652651201470415 0.04840193973376356 0.0034432037636061364 0.034994756233660405 -36.67140917426715 -0.015860420640004837 0.027020433928133577 -0.04657979987178321 0.029727641996410065 -0.042774750616555106 -0.01929527046275175 0.027511497422096385 0.037292372681380866 -19.74438960423125 -0.01715574937211464 -0.04473189439227006 -0.03251510141520742 0.030467850939438205 -0.026019567611858543 -0.04578364728370974 -0.020191731302088182 -0.028116237042664083 24.027903552255435 -0.03722621383082691 0.013938732755634085 28.859411340542287 0.0003883651354722996 0.02998820256732281 28.888334796072176 -0.00419047122816007 -0.010312377487171186 10.72533040556521 2.595583221557715 13.475855363303882 -79.20026493624006 17.326675648333357 -12.970630050803143 -71.71855224479525 11.900494851612805 -96.09114165782069 -8.069935701927205 -9.769516437230921 6.2172295164512 -0.4661646432226835 0.1017628475577178 -8.11126178880755 0.009476105098746872 0.0131035114703014 44.53015853515231 0.030590742935090922 -0.02730747453577156 44.61264693825273 12.417686284892502 -0.0113814926134181 -0.02423365364063704 0.013570764823342176 -0.046578694646038414 -0.01849434245455368 0.0220040858395401 0.017088528536418054 -0.04819568283695928 11.076924650446685 0.008999173198160109 -0.029427111389366073 -0.03740659146613899 0.03120093116710282 -0.00022244284180851945 0.03844044331499746 -0.03686465657406401 0.00976949103934074 4.815799522433115 -0.010682938040699128 0.010472463734838348 0.006969308155815224 -0.029950400314804306 0.04815708276093003 0.04231468952196595 0.00968828752429264 0.025461716764592295 -5.6322043940846305 -0.046514759563062065 0.007730592752530775 -6.7278487831037435 -0.020093686349137205 -0.018020518441445556 -6.689150535936562 -0.019072541954041983 0.01638972146149451 0.01631278200408319 0.048802288056192786 -0.025512684372687874 8.07658384180351 3.4846481935747655 -19.198582363383576 0.002110634996572904 10.379054025135323 0.053556441485763676 -5.627916258865657 -15.690173758415456 3.1486009004362927 -0.0392452545638518 0.04536858300256563 -0.011249419157504313 -0.02676776940583033 4.7259997664029045 0.03317833919695303 12.480227290202007 -8.217800799538203 6.886169710313795 -0.01859588207834081 46.37190015423482 -0.00733181196450923 -4.37058563607413 -14.740334488912625 -3.846483065047764 -0.033584086934101524 -0.04216631486074907 -0.010771337525761055 0.008859185351093604 -10.698195053344497 0.049596791519312906 
-0.03733993412429925 0.02647517834502068 -0.024583302038563917 -0.024053371116221682 0.01650571951088295 0.010184705078084385 5.214671043293528 3.2442789955919777 -2.2100854928731373 -0.8941097605473471 3.408617524531428 0.4534655444229134 -0.7075603866513889 -0.8827624876311583 0.7088223222402933 -0.37911428668515124 -0.25072516153160607 -0.28205989507257967 0.24419320334204211 11.09934287640532 -1.7420036723268129 0.3874919506797845 -0.7090619587511613 -4.216254704603075 1.1040625153522885 -17.405671897021257 -0.4146588754209455 -11.525518928832604 3.9582804822705326 -16.72465355207255 81.3316270670236 -2.0663570097972044 11.641383744769449 23.575072373139403 1.5744070323357013 81.95138294578565 9.960241266421969 -0.46806241415122085 -5.683063212627748 4.558305515973397 -0.14545576028225984 -1.6323801091069516 -0.020349668392590455 -0.014420873399977151 -56.24704297237288 -0.006572673830352022 0.0011792001857399332 -56.22693652825713 -38.75247579445452 -0.017503095558479686 -0.03392386654762227 -0.030981536904463113 -0.02300838052602291 -0.02186720076065771 0.025234280366020916 0.04236768479882078 0.006674007023009219 -36.688819147597975 -0.04080643087495704 0.010071139156157224 0.013251407615766757 -0.025757378420374698 -0.031709528165711535 -0.010466111694243826 0.008152382537504364 -0.03975399685523361 -19.741301962681348 -0.03333240245736165 0.036522021132195395 0.015676372125826836 -0.00192161932571268 -0.04853217999652891 0.018865328999218813 0.029621414018735328 0.01910004484252509 24.047411342524498 0.020346823856784053 0.0008535184978235141 28.843642573902336 -0.008159029528916015 -0.03307245982194893 28.824769416816032 0.0014845915092093433 -0.034738002416752976 10.598832970278147 2.5262851018018364 13.527994295973189 -79.31961461537666 17.080865986089968 -12.313618757169214 -73.97306222111946 11.722144434147772 -97.30793379110837 -8.566271969637164 -10.502216472846632 6.618565354617829 -0.44140697526317885 0.10948118353602607 -8.17376108300354 -0.02000772147886711 -0.0026179870290063026 44.553582982527374 -0.0455930546754712 -0.043254733452172595 44.52434366294326 12.4467532432063 -0.039737970558435455 0.025986579732629446 0.02986623571429901 -0.0240806811207441 0.0007620725798987331 -0.007504507563494127 0.02047129624542152 -0.021900780417622827 11.128640353935282 0.022156608042421727 0.01994241744316939 -0.018852971889017113 0.0341005317672781 0.019101723567660638 0.012655656108045836 -0.039754226106666894 0.03693859031686676 4.764951495821464 0.021437284947332554 0.009384961185283626 0.043330667100021265 0.030612576503430425 -0.03185885446473769 0.04430882017867572 0.003505257093081037 0.019135293000593287 -5.5897829792281755 0.0015866330464238318 -0.013641690834712296 -6.697330174957684 0.031390872124420204 -0.02512291192281661 -6.697212943987488 -0.00019487271664017465 0.022519080835216736 -0.029726880131247347 0.0018179261431189005 0.004580852430855282 8.061084302624595 3.4780392397164555 -19.24719727035866 -0.01721201128213244 10.402468719183691 -0.0067826159343470915 -5.6228449873910415 -15.62849810193036 3.1708173660842647 -0.027077344960980885 -0.023640688312884357 -0.03915716136522122 -0.0008748958308097621 4.700575990006739 0.024975331181864624 12.491071245105854 -8.230127072192897 6.8410812611127545 0.036156114421936884 46.34288752092143 0.00585082807195296 -4.345210630200262 -14.721448052334413 -3.8275727305417475 0.035597104720471694 0.0018825617224820497 0.03165747783534424 0.036211261694679295 -10.726984682965698 -0.003874949859435526 
0.041057258039463675 -0.01819453613184285 -0.009255957285740812 0.0021285502433929966 -0.03739779374347801 0.033617699185920044 5.326142217499701 3.0842499369589875 -2.224802947704228 -0.8395750880143362 3.4006173814398184 0.4294846283802068 -0.6953452976261901 -0.8542588534752866 0.6409909018053007 -0.3858984543920074 -0.28154012738686596 -0.32818209344852045 0.19924775451576557 11.116728579345724 -1.7183409243559482 0.3620435913943178 -0.7772632852031472 -4.028696078289912 1.0701237147929537 -17.39214940028143 -0.4145335036575131 -11.343281783368928 3.9310273751322082 -17.062325199589473 81.99725788877835 -1.9506535892315977 9.664659430373169 23.01687421517781 1.2746135110094057 81.77121851263469 9.660840420012306 -0.5223500051226997 -5.664125326265551 4.530591965034562 -0.12137658822336458 -1.564761033601093 -0.03265031645131984 -0.024543140470592157 -56.24087592411769 -0.0226800936332197 -0.034548181374242884 -56.23683515470461 -38.81186240256907 0.01787591633768117 -0.016569164795095043 -0.03353422327306399 0.025827319719885725 -0.03722929672389822 0.00535110683953323 0.008231733644291165 -0.004585552334855945 -36.6886749880602 0.023596569201972745 0.007947620876611558 0.01281091110125061 -0.0014982038031209272 0.03966987134171087 -0.04716346752044244 0.01646274332600633 0.024839504345240286 -19.780522312009495 0.01163679472986161 -0.006519245917364611 0.049723116323629586 -0.0030573090287466585 -0.04366301603791134 -0.00970893042412597 0.015049777590449403 0.03341796355320138 24.022335361769475 -0.00034566523407374665 0.04497193061849465 28.85867279988675 -0.0008868048414573979 -0.037211579899033724 28.83169064048029 -0.02973876621335521 0.04839364445822966 10.636410652193694 2.5589606794232127 13.81456234750003 -79.7971690767586 16.26745162111487 -11.292965097111889 -76.74006585449312 11.1555033484641 -98.71223714666547 -8.747752936696964 -11.254908683876062 6.768410829549963 -0.46490779669297627 0.11295710234057607 -8.084566461612766 -0.015455082055679572 0.004335192117431655 44.55825453495022 0.04554129641448589 -0.016299924571768355 44.613220364440636 12.479294074492607 -0.018048187653937904 -0.018757997904341534 -0.02825534350971135 -0.020312335320804068 -0.015889103267292672 0.020342283489144155 -0.011595947139849249 -0.0363742872815862 11.103099917391665 0.0442452803092946 -0.0067849328813706 -0.0004056183736955689 0.01127766983768905 0.013835589866227153 0.04612835884940432 -0.0031612250885574645 -0.027671349138892656 4.807775571312906 -0.03425053665095191 0.025001324337784927 0.007401272247705285 0.0356570231318119 -0.004168895248523213 0.01235497472980331 0.03540139674675825 0.026511547912749244 -5.583511567195942 -0.01327276470795017 0.0008079522623405783 -6.69492491298873 0.023953287686182868 -0.04399434067479334 -6.750031492823338 0.021205357856513896 0.01187510351774104 0.02519083942919495 -0.018014865992115242 0.014147769470504383 8.060979772038229 3.496913630068932 -19.262471511175814 -0.004196087879564401 10.412100969597537 0.044371210477600065 -5.6348699008505045 -15.704466863837412 3.2108916519678026 0.028719949464007577 -0.0026537450379931975 -0.008460765472020428 -0.03514693644098274 4.675877414322795 0.02885353443624889 12.474500771287682 -8.236323211386493 6.911184982880719 0.00827706351727389 46.382926332800174 0.02109218153456194 -4.319640824387844 -14.795267422860842 -3.796991589745348 -0.041788000632389626 -0.013030946986349976 0.04579678944527494 -0.026784488383680617 -10.776882690025475 -0.014539757269076824 
